<svg width="24" height="24" viewBox="0 0 24 24" fill="none" xmlns="http://www.w3.org/2000/svg">
<g clip-path="url(#clip0)">
<path d="M18.6272 23.5142C18.8912 23.5142 19.1523 23.4324 19.3752 23.2712C19.7903 22.9713 19.9842 22.4542 19.8712 21.9543L18.3273 15.1541L23.5635 10.5619C23.9484 10.225 24.0954 9.69397 23.9374 9.20689C23.7794 8.72092 23.3494 8.37594 22.8404 8.32888L15.9111 7.6999L13.1731 1.28975C12.9711 0.818795 12.5111 0.514648 12.0001 0.514648C11.489 0.514648 11.029 0.818795 10.8271 1.28866L8.08901 7.6999L1.16084 8.32888C0.650698 8.37484 0.220755 8.72 0.0627308 9.20598C-0.095293 9.69287 0.0508289 10.225 0.436825 10.561L5.67195 15.1521L4.12796 21.9523C4.0148 22.4524 4.2089 22.9693 4.62383 23.2692C5.03692 23.5682 5.5879 23.5933 6.02499 23.3313L12.0001 19.7612L17.9742 23.3333C18.1762 23.4543 18.4012 23.5142 18.6272 23.5142ZM12.0001 18.2232C11.773 18.2232 11.5481 18.2842 11.346 18.4042L5.70784 21.7763L7.16503 15.357C7.26904 14.8991 7.11394 14.423 6.76091 14.1141L1.81674 9.77692L8.35799 9.18291C8.82694 9.14097 9.23308 8.84598 9.4171 8.41091L12.0001 2.36168L14.5852 8.41183C14.7681 8.84488 15.1741 9.13988 15.6441 9.18199L22.1843 9.776L17.2403 14.113C16.8862 14.4221 16.7322 14.8991 16.8362 15.357L18.2932 21.7763L12.655 18.4042C12.4522 18.2842 12.2271 18.2232 12.0001 18.2232ZM8.0359 7.82185V7.82295C8.0359 7.82295 8.0359 7.82295 8.0359 7.82185Z" fill="black" fill-opacity="0.2"/>
</g>
<defs>
<clipPath id="clip0">
<rect width="24" height="24" fill="white" transform="matrix(-1 0 0 1 24 0)"/>
</clipPath>
</defs>
</svg>
