<svg width="22" height="22" viewBox="0 0 22 22" fill="none" xmlns="http://www.w3.org/2000/svg">
<path fill-rule="evenodd" clip-rule="evenodd" d="M14.645 5.19388C16.9881 7.53703 16.9881 11.336 14.645 13.6792C12.3018 16.0223 8.50285 16.0223 6.1597 13.6792C3.81656 11.336 3.81656 7.53703 6.1597 5.19388C8.50285 2.85074 12.3018 2.85074 14.645 5.19388ZM16.6666 14.4136C19.1682 11.2729 18.9658 6.68624 16.0592 3.77967C12.935 0.655475 7.86968 0.655475 4.74549 3.77967C1.6213 6.90386 1.6213 11.9692 4.74549 15.0934C7.60829 17.9562 12.101 18.1957 15.2365 15.8119L17.9841 18.5595C18.3746 18.95 19.0078 18.95 19.3983 18.5595C19.7888 18.169 19.7888 17.5358 19.3983 17.1453L16.6666 14.4136Z" fill="white"/>
</svg>
