<svg width="16" height="16" viewBox="0 0 16 16" fill="none" xmlns="http://www.w3.org/2000/svg">
<path d="M12.4181 15.6768C12.5942 15.6768 12.7682 15.6222 12.9168 15.5148C13.1935 15.3148 13.3228 14.9701 13.2475 14.6369L12.2182 10.1034L15.709 7.04193C15.9656 6.81731 16.0636 6.4633 15.9583 6.13858C15.8529 5.8146 15.5663 5.58461 15.2269 5.55324L10.6074 5.13392L8.78204 0.860487C8.6474 0.546514 8.34075 0.34375 8.00004 0.34375C7.65933 0.34375 7.35268 0.546514 7.21804 0.859755L5.39267 5.13392L0.773895 5.55324C0.433799 5.58388 0.14717 5.81399 0.0418205 6.13797C-0.0635281 6.46256 0.033886 6.81731 0.291217 7.04132L3.7813 10.1021L2.75198 14.6355C2.67653 14.9689 2.80593 15.3135 3.08255 15.5135C3.35795 15.7128 3.72527 15.7295 4.01666 15.5548L8.00004 13.1748L11.9828 15.5562C12.1175 15.6369 12.2675 15.6768 12.4181 15.6768ZM8.00004 12.1495C7.84867 12.1495 7.69876 12.1901 7.56399 12.2701L3.80523 14.5182L4.77669 10.2387C4.84603 9.93336 4.74263 9.61597 4.50727 9.41003L1.21116 6.5186L5.572 6.12259C5.88463 6.09463 6.15539 5.89797 6.27807 5.60793L8.00004 1.57511L9.72347 5.60854C9.84543 5.89724 10.1161 6.0939 10.4294 6.12198L14.7895 6.51799L11.4935 9.4093C11.2574 9.61536 11.1548 9.93336 11.2241 10.2387L12.1955 14.5182L8.4367 12.2701C8.30144 12.1901 8.15141 12.1495 8.00004 12.1495Z" fill="#FFA621"/>
</svg>
