<svg width="16" height="16" viewBox="0 0 16 16" fill="none" xmlns="http://www.w3.org/2000/svg">
<path d="M0.388037 6.21792C0.488015 5.90785 0.762681 5.68861 1.08801 5.65858L5.50548 5.2572L7.25223 1.16847C7.3809 0.869146 7.67424 0.675781 8.00018 0.675781C8.32623 0.675781 8.61958 0.869756 8.74824 1.16981L10.4949 5.25793L14.9131 5.65919C15.2377 5.68861 15.5123 5.90785 15.6124 6.21792C15.713 6.52799 15.6198 6.86723 15.3744 7.08196L12.0349 10.01L13.0197 14.3468C13.0916 14.6655 12.9677 14.9948 12.7029 15.1868C12.5617 15.2908 12.3943 15.3428 12.227 15.3428C12.0823 15.3428 11.9383 15.3042 11.8096 15.2268L8.00018 12.9488L4.19148 15.2262C3.91279 15.3935 3.56146 15.3788 3.29741 15.1875C3.03276 14.9955 2.90873 14.6661 2.98076 14.3474L3.9654 10.0107L0.625958 7.08257C0.380713 6.86796 0.287326 6.5286 0.388037 6.21792Z" fill="#FFA621"/>
</svg>
