<svg width="12" height="12" viewBox="0 0 12 12" fill="none" xmlns="http://www.w3.org/2000/svg">
<path fill-rule="evenodd" clip-rule="evenodd" d="M1.05025 9.53561C0.659729 9.92614 0.659729 10.5593 1.05025 10.9498C1.44078 11.3404 2.07394 11.3404 2.46447 10.9498L6.00035 7.41395L9.53588 10.9495C9.9264 11.34 10.5596 11.34 10.9501 10.9495C11.3406 10.559 11.3406 9.92579 10.9501 9.53527L7.41456 5.99974L10.9497 2.46455C11.3403 2.07402 11.3403 1.44086 10.9497 1.05033C10.5592 0.659809 9.92606 0.659809 9.53553 1.05033L6.00034 4.58552L2.46481 1.04999C2.07429 0.659464 1.44112 0.659463 1.0506 1.04999C0.660074 1.44051 0.660074 2.07368 1.0506 2.4642L4.58613 5.99974L1.05025 9.53561Z" fill="black" fill-opacity="0.6"/>
</svg>
