<svg width="24" height="23" viewBox="0 0 24 23" fill="none" xmlns="http://www.w3.org/2000/svg">
<path d="M0.582054 8.32786C0.732021 7.86276 1.14402 7.53389 1.63201 7.48885L8.25822 6.88678L10.8783 0.753682C11.0713 0.304695 11.5114 0.0146484 12.0003 0.0146484C12.4894 0.0146484 12.9294 0.305611 13.1224 0.755696L15.7423 6.88788L22.3696 7.48976C22.8565 7.53389 23.2685 7.86276 23.4187 8.32786C23.5695 8.79296 23.4296 9.30182 23.0616 9.62391L18.0524 14.016L19.5296 20.5212C19.6374 20.9993 19.4516 21.4931 19.0544 21.7812C18.8425 21.9372 18.5915 22.0152 18.3405 22.0152C18.1235 22.0152 17.9074 21.9573 17.7144 21.8412L12.0003 18.4242L6.28722 21.8403C5.86918 22.0912 5.34219 22.0692 4.94612 21.7823C4.54914 21.4942 4.3631 21.0002 4.47113 20.5221L5.9481 14.0171L0.938936 9.62483C0.571068 9.30292 0.430986 8.79387 0.582054 8.32786Z" fill="#FFA621"/>
</svg>
