<svg width="22" height="22" viewBox="0 0 22 22" fill="none" xmlns="http://www.w3.org/2000/svg">
<path d="M21.9027 0.655981C21.7557 0.375135 21.4644 0.199219 21.1475 0.199219H0.852729C0.535531 0.199219 0.24476 0.374877 0.0975044 0.655981C-0.0497507 0.937085 -0.0289967 1.27646 0.151517 1.53711L7.7882 12.5739V20.9487C7.7882 21.4197 8.16994 21.8015 8.64092 21.8015H13.3593C13.8303 21.8015 14.212 21.4197 14.212 20.9487V12.5739L21.8487 1.53715C22.0289 1.2762 22.0497 0.936828 21.9027 0.655981ZM12.6581 11.8227C12.5594 11.9654 12.5066 12.1345 12.5066 12.3079V20.0961H9.4936V12.3078C9.4936 12.1345 9.44075 11.9653 9.34209 11.8226L2.47971 1.90467H19.5207L12.6581 11.8227Z" fill="black" fill-opacity="0.2"/>
</svg>
