<svg width="18" height="18" viewBox="0 0 18 18" fill="none" xmlns="http://www.w3.org/2000/svg">
<rect width="18" height="18" fill="url(#paint0_linear)"/>
<path d="M13.1275 0H4.87243C2.18573 0 0 2.18573 0 4.87243V13.1277C0 15.8142 2.18573 18 4.87243 18H13.1277C15.8142 18 18 15.8142 18 13.1277V4.87243C18 2.18573 15.8142 0 13.1275 0ZM8.99998 13.9217C6.28609 13.9217 4.07825 11.7139 4.07825 8.99998C4.07825 6.28609 6.28609 4.07825 8.99998 4.07825C11.7139 4.07825 13.9217 6.28609 13.9217 8.99998C13.9217 11.7139 11.7139 13.9217 8.99998 13.9217ZM14.0394 5.23896C13.2374 5.23896 12.5851 4.58665 12.5851 3.78465C12.5851 2.98265 13.2374 2.3302 14.0394 2.3302C14.8414 2.3302 15.4939 2.98265 15.4939 3.78465C15.4939 4.58665 14.8414 5.23896 14.0394 5.23896Z" fill="url(#paint1_linear)"/>
<path d="M9 5.625C7.1391 5.625 5.625 7.13899 5.625 9C5.625 10.8609 7.1391 12.375 9 12.375C10.861 12.375 12.375 10.8609 12.375 9C12.375 7.13899 10.861 5.625 9 5.625Z" fill="url(#paint2_linear)"/>
<defs>
<linearGradient id="paint0_linear" x1="16" y1="0.999999" x2="0.999999" y2="16" gradientUnits="userSpaceOnUse">
<stop stop-color="white"/>
<stop offset="1" stop-color="white" stop-opacity="0"/>
</linearGradient>
<linearGradient id="paint1_linear" x1="15.5" y1="-4.47036e-07" x2="5.0664e-07" y2="16.5" gradientUnits="userSpaceOnUse">
<stop stop-color="#CA38A6"/>
<stop offset="0.3125" stop-color="#E94868"/>
<stop offset="0.646475" stop-color="#FF9148"/>
<stop offset="0.974139" stop-color="#FFD854"/>
</linearGradient>
<linearGradient id="paint2_linear" x1="11.5" y1="6" x2="6" y2="11.5" gradientUnits="userSpaceOnUse">
<stop stop-color="#FF6941"/>
<stop offset="1" stop-color="#FF6941"/>
</linearGradient>
</defs>
</svg>
