<svg width="26" height="26" viewBox="0 0 26 26" fill="none" xmlns="http://www.w3.org/2000/svg">
<path d="M10.1716 10.1716C8.60948 11.7337 8.60948 14.2663 10.1716 15.8284C11.7337 17.3905 14.2663 17.3905 15.8284 15.8284C17.3905 14.2663 17.3905 11.7337 15.8284 10.1716C14.2663 8.60948 11.7337 8.60948 10.1716 10.1716Z" fill="black"/>
<path d="M0 11.375H1.75472C2.47072 6.404 6.40398 2.47073 11.375 1.75472V0H14.625V1.75472C19.596 2.47072 23.5293 6.40398 24.2453 11.375H26V14.625H24.2453C23.5293 19.596 19.596 23.5293 14.625 24.2453V26H11.375V24.2453C6.404 23.5293 2.47073 19.596 1.75472 14.625H0V11.375ZM13 21.125C17.4799 21.125 21.125 17.4799 21.125 13C21.125 8.52013 17.4799 4.875 13 4.875C8.52014 4.875 4.875 8.52013 4.875 13C4.875 17.4799 8.52014 21.125 13 21.125Z" fill="black"/>
</svg>
